<?xml version="1.0" encoding="UTF-8"?>
<svg id="Capa_1" xmlns="http://www.w3.org/2000/svg" version="1.1" viewBox="0 0 30 30">
  <!-- Generator: Adobe Illustrator 29.3.1, SVG Export Plug-In . SVG Version: 2.1.0 Build 151)  -->
  <defs>
    <style>
      .st0 {
        fill: #838383;
      }
    </style>
  </defs>
  <path class="st0" d="M15.2,11.3c-2.1,0-3.8,1.7-3.8,3.8s1.7,3.8,3.8,3.8,3.8-1.7,3.8-3.8-1.7-3.8-3.8-3.8ZM15.2,17.1c-1.1,0-2-.9-2-2s.9-2,2-2,2,.9,2,2-.9,2-2,2Z"/>
  <path class="st0" d="M25.4,16.8l-1.4-.9c0-.3,0-.5,0-.8s0-.6,0-.8l1.4-.8c1.3-.7,1.7-2.4,1-3.6l-1.2-2.1c-.4-.6-.9-1-1.6-1.2-.7-.2-1.4,0-2,.3l-1.6.9c-.3-.2-.7-.4-1-.5v-1.9c0-1.5-1.2-2.7-2.7-2.7h-2.5c-1.5,0-2.7,1.2-2.7,2.7v2c-.2.1-.5.3-.7.4l-1.7-1.1c-.6-.4-1.3-.5-2-.3-.7.2-1.3.6-1.6,1.2l-1.3,2.1c-.4.6-.5,1.3-.3,2s.6,1.3,1.2,1.6l1.7,1.1c0,.3,0,.6,0,.8s0,.3,0,.4l-1.7,1c-1.3.7-1.7,2.4-1,3.6l1.2,2.1c.4.6.9,1,1.6,1.2.7.2,1.4,0,2-.3l1.6-.9c.3.2.7.5,1,.6v1.8c0,1.5,1.2,2.7,2.7,2.7h2.5c1.5,0,2.7-1.2,2.7-2.7v-1.6c.4-.2.7-.4,1-.6l1.4.9c1.2.8,2.9.4,3.6-.9l1.3-2.1c.8-1.2.4-2.9-.9-3.6ZM24.7,19.5l-1.3,2.1c-.3.4-.8.6-1.2.3l-2.4-1.5-.5.4c-.5.4-1.1.7-1.7.9l-.6.2v2.8c0,.5-.4.9-.9.9h-2.5c-.5,0-.9-.4-.9-.9v-2.9l-.5-.2c-.5-.2-1.1-.6-1.6-1l-.5-.4-2.6,1.5c-.2.1-.4.1-.7,0-.2,0-.4-.2-.5-.4l-1.2-2.1c-.2-.4-.1-1,.3-1.2l2.7-1.6v-.8c-.1-.2-.2-.4-.2-.5,0-.4,0-.8.1-1.1v-.6c0,0-2.6-1.7-2.6-1.7-.2-.1-.3-.3-.4-.5,0-.2,0-.5.1-.7l1.3-2.1c.1-.2.3-.3.5-.4.2,0,.5,0,.7.1l2.7,1.7.5-.4c.5-.4.9-.6,1.4-.8l.5-.2v-3.2c0-.5.4-.9.9-.9h2.5c.5,0,.9.4.9.9v3.1l.6.2c.6.2,1.1.5,1.6.9l.5.3,2.6-1.5c.2-.1.4-.2.7,0,.2,0,.4.2.5.4l1.2,2.1c.2.4.1,1-.3,1.2l-2.5,1.4v.6c.2.4.2.8.2,1.2s0,.7-.1,1.1v.6c0,0,2.3,1.5,2.3,1.5.4.3.5.8.3,1.2Z"/>
</svg>