<?xml version="1.0" encoding="UTF-8"?>
<svg id="Capa_1" xmlns="http://www.w3.org/2000/svg" version="1.1" viewBox="0 0 30 30">
  <!-- Generator: Adobe Illustrator 29.3.1, SVG Export Plug-In . SVG Version: 2.1.0 Build 151)  -->
  <path d="M10.5,6.9h8.9c.4,0,.7-.3.7-.7s-.3-.7-.7-.7h-8.9c-.4,0-.7.3-.7.7s.3.7.7.7Z"/>
  <path d="M6.9,5.4c-.4,0-.8.3-.8.8s.3.8.8.8.8-.3.8-.8-.3-.8-.8-.8Z"/>
  <path d="M10.5,11.2h8.9c.4,0,.7-.3.7-.7s-.3-.7-.7-.7h-8.9c-.4,0-.7.3-.7.7s.3.7.7.7Z"/>
  <path d="M6.9,9.7c-.4,0-.8.3-.8.8s.3.8.8.8.8-.3.8-.8-.3-.8-.8-.8Z"/>
  <path d="M16.4,14.9c0-.4-.3-.7-.7-.7h-5.1c-.4,0-.7.3-.7.7s.3.7.7.7h5.1c.4,0,.7-.3.7-.7Z"/>
  <path d="M6.9,14.1c-.4,0-.8.3-.8.8s.3.8.8.8.8-.3.8-.8-.3-.8-.8-.8Z"/>
  <path d="M23.6,15.6V4.8c0-2-1.7-3.7-3.7-3.7H5.8c-2,0-3.7,1.7-3.7,3.7v17.1c0,2,1.7,3.7,3.7,3.7h9.4c1.2,1.9,3.4,3.2,5.8,3.2,3.8,0,6.9-3.1,6.9-6.9s-1.8-5.3-4.3-6.4ZM5.8,24.2c-1.2,0-2.2-1-2.2-2.2V4.8c0-1.2,1-2.2,2.2-2.2h14.1c1.2,0,2.2,1,2.2,2.2v10.4c-.4,0-.7-.1-1.1-.1-3.8,0-6.9,3.1-6.9,6.9s.2,1.5.4,2.2H5.8ZM21,27.4c-3,0-5.4-2.4-5.4-5.4s2.4-5.4,5.4-5.4,5.4,2.4,5.4,5.4-2.4,5.4-5.4,5.4Z"/>
  <path d="M23,19.4l-3,3.6-1.4-1.3c-.3-.3-.8-.3-1,0s-.3.8,0,1l2.5,2.3,4-4.8c.3-.3.2-.8,0-1-.3-.3-.8-.2-1,0Z"/>
</svg>