<?xml version="1.0" encoding="UTF-8"?>
<svg id="Capa_1" xmlns="http://www.w3.org/2000/svg" version="1.1" viewBox="0 0 30 30">
  <!-- Generator: Adobe Illustrator 29.3.1, SVG Export Plug-In . SVG Version: 2.1.0 Build 151)  -->
  <defs>
    <style>
      .st0 {
        fill: #ff2c00;
      }
    </style>
  </defs>
  <path class="st0" d="M4.8,3.2h11.8v3c0,.5.4.9.9.9h3v4.5h1.7v-5.6s0,0,0,0v-.2l-4.4-4.4H3.1v24.2h6.2v-1.7h-4.5V3.2ZM18.4,5.3v-.9l.9.9h-.9Z"/>
  <rect class="st0" x="7.2" y="10.1" width="8.9" height="1.7"/>
  <rect class="st0" x="7.2" y="13.5" width="4.5" height="1.7"/>
  <rect class="st0" x="7.2" y="16.7" width="2.3" height="1.7"/>
  <rect class="st0" x="15.5" y="17.7" width="4" height="1.7"/>
  <rect class="st0" x="15.5" y="20.6" width="5.8" height="1.7"/>
  <path class="st0" d="M26.7,26.9l-2.8-2.8c.8-1.1,1.2-2.5,1.2-4,0-3.9-3.1-7-7-7s-7,3.1-7,7,3.1,7,7,7,3.2-.6,4.5-1.7l2.8,2.8c.2.2.4.3.7.3s.5,0,.7-.3c.4-.4.4-1,0-1.3ZM18.1,25.2c-2.8,0-5.1-2.3-5.1-5.1s2.3-5.1,5.1-5.1,5.1,2.3,5.1,5.1-2.3,5.1-5.1,5.1Z"/>
</svg>