<?xml version="1.0" encoding="UTF-8"?>
<svg id="Capa_1" xmlns="http://www.w3.org/2000/svg" version="1.1" viewBox="0 0 30 30">
  <!-- Generator: Adobe Illustrator 29.3.1, SVG Export Plug-In . SVG Version: 2.1.0 Build 151)  -->
  <path d="M23.6,14.7V4.4c0-.9-.8-1.7-1.7-1.7H6.7c-.9,0-1.7.8-1.7,1.7v5.3h-.8c-.9,0-1.7.8-1.7,1.7v14.3c0,.9.8,1.7,1.7,1.7h17l6.2-12.6h-3.8ZM20.1,25.5H4.3c0,0,0-14.1,0-14.1h.8v5.2c0,.5.4.9.9.9s.9-.4.9-.9V4.5c0,0,15,0,15,0v10.3h-5.4l-2.1,2.4h-6.6l-3,4.2c-.3.4-.2,1,.2,1.2.4.3,1,.2,1.2-.2l2.5-3.4h6.5l2.1-2.4h7.3l-4.5,9.1Z"/>
  <path d="M9.4,9.9h7.1c.5,0,.9-.4.9-.9s-.4-.9-.9-.9h-7.1c-.5,0-.9.4-.9.9s.4.9.9.9Z"/>
  <path d="M9.4,13.9h9c.5,0,.9-.4.9-.9s-.4-.9-.9-.9h-9c-.5,0-.9.4-.9.9s.4.9.9.9Z"/>
</svg>