<?xml version="1.0" encoding="UTF-8"?>
<svg id="Capa_1" xmlns="http://www.w3.org/2000/svg" version="1.1" viewBox="0 0 30 30">
  <!-- Generator: Adobe Illustrator 29.3.1, SVG Export Plug-In . SVG Version: 2.1.0 Build 151)  -->
  <defs>
    <style>
      .st0 {
        fill: #cd8000;
      }
    </style>
  </defs>
  <path class="st0" d="M15,1.6C7.6,1.6,1.6,7.6,1.6,15s6,13.4,13.4,13.4,13.4-6,13.4-13.4S22.4,1.6,15,1.6ZM15,25.2c-5.6,0-10.2-4.6-10.2-10.2S9.4,4.8,15,4.8s10.2,4.6,10.2,10.2-4.6,10.2-10.2,10.2Z"/>
  <path class="st0" d="M18,19.9c-.3,0-.5,0-.6-.1,0,0-.1,0-.2-.2,0,0,0-.2,0-.4s0-.5,0-.8v-6.2c0-.1,0-.3-.1-.4s-.2-.4-.7-.4-.2,0-.3,0c0,0-.2,0-.3,0-.2,0-.3,0-.5.1-.2,0-.4,0-.6,0-.2,0-.4,0-.6,0-.2,0-.3,0-.4,0-.2,0-.4.1-.5.3,0,.1-.1.3-.1.4s0,.3.1.4c.1.2.3.3.5.3h0c.3,0,.5,0,.6.1,0,0,.1,0,.2.2,0,0,.1.3.1.6,0,.3,0,.8,0,1.3v3.1c0,.3,0,.5,0,.7,0,.1,0,.2,0,.3,0,0-.1.1-.2.2-.1,0-.3.1-.7.2-.2,0-.4.2-.4.3,0,.1-.1.3-.1.4s0,.3.1.4c.1.2.3.3.5.3.4,0,.8,0,1.2,0,.8,0,1.5,0,2.3,0,.4,0,.7,0,1,0s.4,0,.5-.3c0-.1.1-.3.1-.4s0-.3-.1-.4c0,0-.2-.2-.5-.3Z"/>
  <path class="st0" d="M15.7,10.3c.4,0,.8-.1,1-.4s.4-.6.4-1-.1-.7-.4-1c-.6-.6-1.6-.6-2.1,0-.3.3-.5.6-.5,1s.2.8.5,1c.3.3.7.4,1.1.4Z"/>
</svg>