<?xml version="1.0" encoding="UTF-8"?>
<svg id="Capa_1" xmlns="http://www.w3.org/2000/svg" version="1.1" viewBox="0 0 30 30">
  <!-- Generator: Adobe Illustrator 29.3.1, SVG Export Plug-In . SVG Version: 2.1.0 Build 151)  -->
  <path d="M27.6,5.6h-6.7c-.5-2.5-2.8-4.4-5.5-4.4h-.6c-2.7,0-4.9,1.9-5.5,4.4H2.4v2.4h2.2v14.4c0,3.6,2.9,6.5,6.5,6.5h8.2c3.6,0,6.5-2.9,6.5-6.5V8h1.9v-2.4ZM14.9,3.6h.6c1.3,0,2.5.8,2.9,2h-6.5c.5-1.2,1.6-2,2.9-2ZM23.3,22.4c0,2.2-1.8,4.1-4.1,4.1h-8.2c-2.2,0-4.1-1.8-4.1-4.1V8h16.3v14.4Z"/>
  <path d="M10.6,23.8c.7,0,1.2-.5,1.2-1.2v-8.8c0-.7-.5-1.2-1.2-1.2s-1.2.5-1.2,1.2v8.8c0,.7.5,1.2,1.2,1.2Z"/>
  <path d="M15.1,23.8c.7,0,1.2-.5,1.2-1.2v-8.8c0-.7-.5-1.2-1.2-1.2s-1.2.5-1.2,1.2v8.8c0,.7.5,1.2,1.2,1.2Z"/>
  <path d="M19.9,23.8c.7,0,1.2-.5,1.2-1.2v-8.8c0-.7-.5-1.2-1.2-1.2s-1.2.5-1.2,1.2v8.8c0,.7.5,1.2,1.2,1.2Z"/>
</svg>