<?xml version="1.0" encoding="UTF-8"?>
<svg id="Capa_1" xmlns="http://www.w3.org/2000/svg" version="1.1" viewBox="0 0 30 30">
  <!-- Generator: Adobe Illustrator 29.3.1, SVG Export Plug-In . SVG Version: 2.1.0 Build 151)  -->
  <defs>
    <style>
      .st0 {
        fill: #ff2c00;
      }
    </style>
  </defs>
  <path class="st0" d="M4.6,2.7h10.9v2.8c0,.4.3.7.7.7h2.8v3h1.4v-4l-3.9-3.9h0c0,0-13.3,0-13.3,0v21.8h4.3v-1.4h-2.9V2.7ZM17,4.8v-1.1l1.1,1.1h-1.1Z"/>
  <path class="st0" d="M26.7,20.1c0-.3,0-.7,0-1,.3-1.6-.3-3.1-1.4-4.2-.2-.2-.4-.5-.6-.8-.7-1.4-2-2.4-3.5-2.6-.3,0-.6-.1-.9-.3-1.4-.7-3-.7-4.4,0-.3.2-.6.3-.9.3-1.5.2-2.8,1.2-3.5,2.6h0c-.1.3-.3.6-.6.9-1.1,1.1-1.6,2.7-1.3,4.2,0,.3,0,.7,0,1-.3,1.6.3,3.1,1.4,4.2.2.2.4.5.6.8.7,1.4,2,2.4,3.5,2.6.3,0,.6.1.9.3.7.4,1.4.5,2.1.5s1.5-.2,2.2-.6c.3-.2.6-.3.9-.3,1.5-.2,2.8-1.2,3.5-2.7.1-.3.3-.6.6-.8,1.1-1.1,1.6-2.7,1.3-4.2ZM11.4,19c-.2-.9.1-1.9.8-2.5.4-.4.7-.8.9-1.4.4-.8,1.2-1.4,2.1-1.6.6,0,1.1-.3,1.5-.5.4-.2.9-.3,1.3-.3s.9.1,1.3.3c.5.3,1,.4,1.6.5.9.1,1.7.7,2.1,1.5.2.5.6.9,1,1.3.7.6,1,1.6.8,2.5,0,.6,0,1.1,0,1.7.2.9-.1,1.9-.8,2.5-.4.4-.7.9-.9,1.4-.4.8-1.2,1.4-2.1,1.6-.5,0-1.1.3-1.5.5-.8.5-1.8.5-2.6,0-.5-.3-1-.4-1.6-.5-.9-.1-1.7-.7-2.1-1.5-.2-.5-.6-.9-1-1.3-.7-.6-1-1.6-.8-2.5,0-.6,0-1.1,0-1.7Z"/>
  <path class="st0" d="M18.1,25c3,0,5.5-2.4,5.5-5.3s-2.4-5.3-5.5-5.3-5.5,2.4-5.5,5.3,2.4,5.3,5.5,5.3ZM14.4,19.7c0-2,1.7-3.7,3.8-3.7s3.8,1.6,3.8,3.7-1.7,3.7-3.8,3.7-3.8-1.6-3.8-3.7Z"/>
  <polygon class="st0" points="20.6 18.7 19.6 17.7 17.4 20.1 16.7 19.4 15.7 20.4 17.4 22.1 20.6 18.7"/>
  <rect class="st0" x="6.8" y="9.2" width="7.1" height="1.4"/>
  <rect class="st0" x="6.8" y="12.2" width="3.1" height="1.4"/>
  <rect class="st0" x="6.8" y="15.2" width="1" height="1.4"/>
</svg>