<?xml version="1.0" encoding="UTF-8"?>
<svg id="Capa_1" xmlns="http://www.w3.org/2000/svg" version="1.1" viewBox="0 0 30 30">
  <!-- Generator: Adobe Illustrator 29.3.1, SVG Export Plug-In . SVG Version: 2.1.0 Build 151)  -->
  <rect x="4.9" y="3.9" width="1.9" height="9.7"/>
  <polygon points="1.6 17.8 4.9 17.8 4.9 26.1 6.9 26.1 6.9 17.8 10.2 17.8 10.2 15.9 1.6 15.9 1.6 17.8"/>
  <rect x="23.1" y="3.9" width="1.9" height="11.6"/>
  <polygon points="28.4 18.4 19.8 18.4 19.8 20.3 23.1 20.3 23.1 26.1 25.1 26.1 25.1 20.3 28.4 20.3 28.4 18.4"/>
  <polygon points="16 3.9 14 3.9 14 9.4 10.7 9.4 10.7 11.3 19.3 11.3 19.3 9.4 16 9.4 16 3.9"/>
  <rect x="14" y="14.4" width="1.9" height="11.8"/>
</svg>