<?xml version="1.0" encoding="UTF-8"?>
<svg id="Capa_1" xmlns="http://www.w3.org/2000/svg" version="1.1" viewBox="0 0 30 30">
  <!-- Generator: Adobe Illustrator 29.3.1, SVG Export Plug-In . SVG Version: 2.1.0 Build 151)  -->
  <defs>
    <style>
      .st0 {
        fill: #f2441c;
      }
    </style>
  </defs>
  <path class="st0" d="M19,18.7c-1.1-1.3-3.1-1.5-4.5-.4l-2.1,1.6c-1.3-.3-2.5-1.3-3.5-2.8-1-1.6-1.4-3.3-1.1-4.7l.8-.2,1.7-.6c.8-.3,1.4-.9,1.8-1.6s.4-1.6.1-2.4l-1.6-4.4c-.3-.8-.9-1.4-1.6-1.8-.8-.4-1.6-.4-2.4-.1l-1.8.6h-.2c-1.4.6-2.7,2-3.4,3.9-.8,1.8-1.7,5.7.8,11.2,2.7,6,8.1,11.3,12.7,12.4.6.1,1.2.2,1.7.2,1.4,0,2.7-.4,3.7-1.3l1.4-1.2c1.4-1.1,1.5-3.1.4-4.5l-3.1-3.8ZM20.6,25.7l-1.4,1.2c-1.1.9-2.4,1.2-4,.8-4.1-1-9.2-6-11.6-11.5-2.2-5-1.4-8.4-.8-9.9.7-1.7,1.8-2.6,2.5-2.9l1.9-.7c.2,0,.3,0,.5,0s.5,0,.7.2c.4.2.7.5.8.9l1.6,4.4c.1.4.1.8,0,1.2-.2.4-.5.7-.9.8l-1.6.6-1.7.3-.2.5c-.6,1.9-.2,4.4,1.2,6.6,1.3,2,3,3.3,4.9,3.6h.1s.4,0,.4,0l2.6-2c.7-.5,1.6-.4,2.2.2l3.1,3.8c.5.7.5,1.6-.2,2.2Z"/>
  <path class="st0" d="M22.1,2c-3.8,0-6.9,3.1-6.9,6.9s3.1,6.9,6.9,6.9,6.9-3.1,6.9-6.9-3.1-6.9-6.9-6.9ZM22.1,14.1c-2.9,0-5.2-2.3-5.2-5.2s2.3-5.2,5.2-5.2,5.2,2.3,5.2,5.2-2.3,5.2-5.2,5.2Z"/>
  <path class="st0" d="M23.6,11.4c-.2,0-.2,0-.3,0,0,0,0,0,0,0,0,0,0-.1,0-.2s0-.2,0-.4v-3.2c0,0,0-.1,0-.2s-.1-.2-.3-.2-.1,0-.2,0c0,0,0,0-.1,0,0,0-.2,0-.3,0-.1,0-.2,0-.3,0-.1,0-.2,0-.3,0,0,0-.2,0-.2,0-.1,0-.2,0-.3.1,0,0,0,.1,0,.2s0,.1,0,.2c0,0,.1.1.2.1h0c.1,0,.3,0,.3,0,0,0,0,0,0,0,0,0,0,.1,0,.3,0,.2,0,.4,0,.7v1.6c0,.1,0,.3,0,.4,0,0,0,.1,0,.2,0,0,0,0-.1,0,0,0-.2,0-.4,0-.1,0-.2,0-.2.1,0,0,0,.1,0,.2s0,.1,0,.2c0,0,.1.1.2.1.2,0,.4,0,.6,0,.4,0,.8,0,1.2,0,.2,0,.4,0,.5,0s.2,0,.3-.1c0,0,0-.1,0-.2s0-.1,0-.2c0,0-.1-.1-.2-.1Z"/>
  <path class="st0" d="M22.5,6.5c.2,0,.4,0,.5-.2s.2-.3.2-.5,0-.4-.2-.5c-.3-.3-.8-.3-1.1,0-.2.1-.2.3-.2.5s0,.4.2.5c.2.1.3.2.6.2Z"/>
</svg>