<?xml version="1.0" encoding="UTF-8"?>
<svg id="Capa_1" xmlns="http://www.w3.org/2000/svg" version="1.1" viewBox="0 0 30 30">
  <!-- Generator: Adobe Illustrator 29.5.0, SVG Export Plug-In . SVG Version: 2.1.0 Build 137)  -->
  <defs>
    <style>
      .st0 {
        fill: #838383;
      }
    </style>
  </defs>
  <path class="st0" d="M11.5,11.9l-.3,2.9c0,.3.1.7.4.9.2.1.3.2.5.2s.3,0,.4-.1l2.4-1.2,2.4,1.2c.3.2.7.1,1,0,.3-.2.4-.5.4-.9l-.3-2.7,1.8-2.1c.2-.3.3-.6.2-1-.1-.3-.4-.6-.8-.6l-2.4-.3-1.4-2.5c-.2-.3-.5-.5-.8-.5-.3,0-.7.2-.8.5l-1.4,2.5-2.5.5h0c-.3,0-.6.3-.7.6-.1.3,0,.7.2.9l1.7,1.8ZM13,9.1c.3,0,.5-.2.7-.5l1.3-2.3,1.3,2.3c.1.3.4.4.7.5l2.2.3-1.6,1.9c-.2.2-.3.5-.2.7l.3,2.5-2.2-1.1c-.3-.1-.6-.1-.9,0l-2.2,1.1.3-2.6c0-.3,0-.5-.3-.7l-1.5-1.6,2.2-.4Z"/>
  <path class="st0" d="M24.4,24.7l-3.3-6.9c2-1.7,3.2-4.2,3.2-7.1,0-5.2-4.2-9.4-9.4-9.4S5.6,5.5,5.6,10.7s1.3,5.4,3.2,7.1l-3.2,7c-.2.3-.1.7.1,1,.2.3.6.4,1,.3l3.1-.7,1.5,2.8c.2.3.5.5.8.5s0,0,0,0c.4,0,.7-.2.8-.5l1.7-3.5-1-.5-1.6,3.3-1.4-2.7c-.2-.4-.6-.6-1.1-.5l-2.9.7,2.9-6.4c1,.7,2.1,1.2,3.4,1.4l3.9,8.2c.2.3.5.5.8.5h0c.4,0,.7-.2.8-.5l1.4-2.9,3.2.8c.4,0,.7,0,1-.3.2-.3.3-.7.1-1ZM6.7,10.7c0-4.6,3.7-8.3,8.3-8.3s8.3,3.7,8.3,8.3-3.7,8.3-8.3,8.3-8.3-3.7-8.3-8.3ZM20.3,24.1c-.4-.1-.9,0-1.1.5l-1.3,2.7-3.5-7.2c.2,0,.4,0,.5,0,1.9,0,3.8-.6,5.3-1.6l3,6.4-2.9-.8Z"/>
</svg>