<?xml version="1.0" encoding="UTF-8"?>
<svg id="Capa_1" xmlns="http://www.w3.org/2000/svg" version="1.1" viewBox="0 0 30 30">
  <!-- Generator: Adobe Illustrator 29.3.1, SVG Export Plug-In . SVG Version: 2.1.0 Build 151)  -->
  <defs>
    <style>
      .st0 {
        fill: #ff2c00;
      }
    </style>
  </defs>
  <path class="st0" d="M24.7,28.6h-5.3c-1.2,0-2.2-1-2.2-2.2v-6.6h-4.1v6.6c0,1.2-1,2.2-2.2,2.2h-5.3c-1.2,0-2.2-1-2.2-2.2v-10.4h-1.6c-.6,0-1.1-.3-1.3-.9-.2-.5,0-1.1.4-1.5L14.1,1.7c.5-.5,1.3-.5,1.8,0l13.2,11.9c.4.4.6,1,.4,1.5-.2.5-.7.9-1.3.9h-1.2v10.4c0,1.2-1,2.2-2.2,2.2ZM11.3,18h7.8v8.4c0,.2.2.4.4.4h5.3c.2,0,.4-.2.4-.4v-12.2h1.9L15,3.4,3,14.2h2.2v12.2c0,.2.2.4.4.4h5.3c.2,0,.4-.2.4-.4v-8.4Z"/>
</svg>