<?xml version="1.0" encoding="UTF-8"?>
<svg id="Capa_1" xmlns="http://www.w3.org/2000/svg" version="1.1" viewBox="0 0 30 30">
  <!-- Generator: Adobe Illustrator 29.5.0, SVG Export Plug-In . SVG Version: 2.1.0 Build 137)  -->
  <defs>
    <style>
      .st0 {
        fill: #ff2c00;
      }
    </style>
  </defs>
  <path class="st0" d="M13.4,4.7c-2.7,0-5,2.2-5,5s2.2,5,5,5,5-2.2,5-5-2.2-5-5-5ZM11.3,13c0-1.4,1-2.1,2.1-2.1s2.1.7,2.1,2.1c-.6.4-1.4.6-2.1.6s-1.5-.2-2.1-.6ZM12.4,8.7c0-.6.5-1,1-1s1,.5,1,1-.5,1-1,1-1-.5-1-1ZM16.5,12c-.2-.8-.8-1.5-1.6-1.9.3-.4.6-.9.6-1.4,0-1.2-.9-2.1-2.1-2.1s-2.1.9-2.1,2.1.2,1,.6,1.4c-.8.4-1.4,1.1-1.6,1.9-.5-.7-.8-1.5-.8-2.3,0-2.2,1.8-3.9,3.9-3.9s3.9,1.8,3.9,3.9-.3,1.7-.8,2.3Z"/>
  <rect class="st0" x="6.9" y="15.5" width="10.3" height="1.1"/>
  <rect class="st0" x="6.9" y="18.9" width="10.3" height="1.1"/>
  <rect class="st0" x="15.6" y="22.1" width="4.3" height="1.1"/>
  <rect class="st0" x="6.9" y="22.1" width="4.4" height="1.1"/>
  <path class="st0" d="M25.2,21.6l-1,.4.3.7-2.1.8v-1.4h-1.1v3.8H5.6v-9.6h0s0,0,0,0V4.1h15.6v7.2h1.1V3h-3.7l-.8-2.3-6,2.3h-7.2v2.4l-3.5,1.2,3.5,9.9v10.5h3.7l.8,2.3,6.4-2.3h6.8v-2.4l3.5-1.2-.6-1.7ZM17.1,2.1l.3.9h-2.8l2.4-.9ZM2.4,7.3l2.1-.8v6.8l-2.1-6.1ZM9.7,27.9l-.3-.9h2.9l-2.6.9Z"/>
  <path class="st0" d="M28.8,21.3l-2.5-2.5c.4-.6.7-1.4.7-2.3,0-2.3-1.8-4.1-4.1-4.1s-4.1,1.8-4.1,4.1,1.8,4.1,4.1,4.1,2-.4,2.7-1l2.5,2.5c.1.1.2.2.4.2s.3,0,.4-.2c.2-.2.2-.5,0-.7ZM22.9,19.6c-1.7,0-3-1.4-3-3s1.4-3,3-3,3,1.4,3,3-1.4,3-3,3Z"/>
</svg>