<?xml version="1.0" encoding="UTF-8"?>
<svg id="Capa_1" xmlns="http://www.w3.org/2000/svg" version="1.1" viewBox="0 0 30 30">
  <!-- Generator: Adobe Illustrator 29.5.0, SVG Export Plug-In . SVG Version: 2.1.0 Build 137)  -->
  <defs>
    <style>
      .st0 {
        fill: #ff2c00;
      }
    </style>
  </defs>
  <polygon class="st0" points="14.8 19.3 22.1 10.8 18.2 10.8 18.2 3 16.9 3 16.9 12 19.3 12 14.8 17.3 10.5 11.9 13.1 11.9 13.1 3 11.9 3 11.9 10.7 7.8 10.7 14.8 19.3"/>
  <path class="st0" d="M27,22.5v-13.9c0-1.3-1-2.3-2.3-2.3h-4.4v1.3h4.4c.6,0,1,.5,1,1v13.7H4.2v-13.7c0-.6.5-1,1-1h4.4v-1.3h-4.4c-1.3,0-2.3,1-2.3,2.3v13.9c-.8.3-1.4,1.2-1.4,2.1s1,2.3,2.3,2.3h22.3c1.3,0,2.3-1,2.3-2.3s-.6-1.8-1.5-2.1ZM26.1,25.7H3.9c-.6,0-1-.5-1-1s.5-1,1-1h22.3c.6,0,1,.5,1,1s-.5,1-1,1Z"/>
</svg>